<?xml version="1.0" encoding="utf-8"?>
<!-- Generator: Adobe Illustrator 25.3.1, SVG Export Plug-In . SVG Version: 6.00 Build 0)  -->
<svg version="1.1" id="Layer_1" xmlns="http://www.w3.org/2000/svg" xmlns:xlink="http://www.w3.org/1999/xlink" x="0px" y="0px"
	 width="70px" height="70px" viewBox="0 0 70 70" enable-background="new 0 0 70 70" xml:space="preserve">
<path fill="none" stroke="#000000" stroke-miterlimit="10" d="M35,67.9h-9.7c-3.6,0-7-1.6-9.2-4.4l-12-15.1c-2.2-2.8-3.1-6.5-2.3-10
	l4.3-18.8c0.8-3.5,3.1-6.4,6.4-8l17.4-8.4c3.2-1.6,7-1.6,10.2,0l17.4,8.4c3.2,1.6,5.6,4.5,6.4,8l4.3,18.8c0.8,3.5,0,7.2-2.3,10
	l-12,15.1c-2.2,2.8-5.6,4.4-9.2,4.4H35"/>
</svg>
