<?xml version="1.0" encoding="utf-8"?>
<!-- Generator: Adobe Illustrator 25.3.1, SVG Export Plug-In . SVG Version: 6.00 Build 0)  -->
<svg version="1.1" id="Layer_1" xmlns="http://www.w3.org/2000/svg" xmlns:xlink="http://www.w3.org/1999/xlink" x="0px" y="0px"
	 width="500px" height="200px" viewBox="0 0 500 200" enable-background="new 0 0 500 200" xml:space="preserve">
<symbol  id="segment" viewBox="-50 -50 100 100">
	<path fill="#808080" d="M32.7,37.8l13.2-57.6C48.5-13.7,50-7,50,0C50,15.1,43.3,28.6,32.7,37.8z"/>
	<path fill="#808080" d="M49.9-3.5L15.1-47.7C34.3-41.6,48.4-24.3,49.9-3.5z"/>
	<path fill="#808080" d="M27.4-41.8h-54.7C-19.5-47-10.1-50,0-50S19.5-47,27.4-41.8z"/>
	<path fill="#808080" d="M-15.3-47.6L-49.9-3.4C-48.5-24.2-34.4-41.5-15.3-47.6z"/>
	<path fill="#808080" d="M-50,0c0-7,1.5-13.8,4.1-19.8L-33,37.6C-43.4,28.4-50,15-50,0z"/>
	<path fill="#808080" d="M0,50c-3.6,0-7.2-0.4-10.6-1.1l55.3-26.4C36.4,38.8,19.5,50,0,50z"/>
	<circle fill="#808080" cx="0" cy="0" r="6.1"/>
	<circle fill="#808080" cx="23.2" cy="0" r="6.1"/>
	<circle fill="#808080" cx="-11.6" cy="20.1" r="6.1"/>
	<circle fill="#808080" cx="-11.6" cy="-20.1" r="6.1"/>
	<path fill="#808080" d="M0,50c-19.5,0-36.5-11.2-44.7-27.6L9.9,49C6.7,49.7,3.4,50,0,50z"/>
</symbol>
<use xlink:href="#segment"  width="100" height="100" x="-50" y="-50" transform="matrix(1 0 0 -1 50 50)" overflow="visible"/>
<rect y="190" fill="#808080" width="500" height="10"/>
</svg>
