<?xml version="1.0" encoding="utf-8"?>
<!-- Generator: Adobe Illustrator 25.3.1, SVG Export Plug-In . SVG Version: 6.00 Build 0)  -->
<svg version="1.1" id="plasmaAll" xmlns="http://www.w3.org/2000/svg" xmlns:xlink="http://www.w3.org/1999/xlink" x="0px" y="0px"
	 width="500px" height="500px" viewBox="0 0 500 500" enable-background="new 0 0 500 500" xml:space="preserve">
<symbol  id="bluePlasma" viewBox="-2.4475 -2.4475 4.895 4.895">
	<path fill="#1C334D" d="M-1.2236,2.1193C-0.0531,2.795,1.4435,2.394,2.1193,1.2236S2.394-1.4435,1.2236-2.1193
		S-1.4435-2.394-2.1193-1.2236S-2.394,1.4435-1.2236,2.1193z"/>
</symbol>
<symbol  id="circddd" viewBox="-242.4713 -242.4713 484.9426 484.9426">
	<g id="conduit_4_">
		<path id="casing_4_" d="M-49.9291-212.5792c-47.7614,27.5751-64.1257,88.6474-36.5506,136.4088S2.1677-12.0447,49.9291-39.6198
			s64.1257-88.6474,36.5506-136.4088S-2.1677-240.1543-49.9291-212.5792z M0-31.4407l-74.0072-35.64l-18.2783-80.0824
			l51.2146-64.2211h82.1418l51.2146,64.2211L74.0072-67.0807L0-31.4407z"/>
		<path id="redPlasma_4_" fill="#4D1C1C" d="M24.4364-75.0584c0-13.4959-10.9406-24.4364-24.4364-24.4364
			s-24.4364,10.9406-24.4364,24.4364S-13.4959-50.622,0-50.622S24.4364-61.5625,24.4364-75.0584z"/>
		<path id="bluePlasma_4_" fill="#1C334D" d="M-56.4211-130.4574c11.6878,6.7479,26.6328,2.7434,33.3808-8.9444
			s2.7434-26.6328-8.9444-33.3808c-11.6878-6.7479-26.6328-2.7434-33.3808,8.9444S-68.1088-137.2054-56.4211-130.4574z"/>
		<path id="greenPlasma_4_" fill="#334D1C" d="M31.9846-172.7826c-11.6878,6.7479-15.6923,21.693-8.9444,33.3808
			s21.693,15.6923,33.3808,8.9444c11.6878-6.7479,15.6923-21.693,8.9443-33.3808S43.6724-179.5305,31.9846-172.7826z"/>
	</g>
	<path id="outCircle_4_" fill="none" stroke="#000000" stroke-width="0.25" stroke-miterlimit="10" d="M242.3463,0
		c0-133.8442-108.5021-242.3463-242.3463-242.3463S-242.3463-133.8442-242.3463,0S-133.8442,242.3463,0,242.3463
		S242.3463,133.8442,242.3463,0z"/>
</symbol>
<symbol  id="greenPlasma" viewBox="-2.4475 -2.4475 4.895 4.895">
	<path fill="#334D1C" d="M-1.2236-2.1193C-2.394-1.4435-2.795,0.0531-2.1193,1.2236S0.0531,2.795,1.2236,2.1193
		S2.795-0.0531,2.1193-1.2236S-0.0531-2.795-1.2236-2.1193z"/>
</symbol>
<symbol  id="plasmaCasing" viewBox="-10.1267 -10.1267 20.2533 20.2533">
	<path fill="none" stroke="#000000" stroke-width="0.25" stroke-miterlimit="10" d="M-5-8.6603
		C-9.7829-5.8988-11.4217,0.2171-8.6603,5S0.2171,11.4217,5,8.6603S11.4217-0.2171,8.6603-5S-0.2171-11.4217-5-8.6603z M0,9.4793
		l-7.4112-3.5691l-1.8304-8.0196l5.1287-6.4312h8.2259l5.1287,6.4312L7.4112,5.9103L0,9.4793z"/>
</symbol>
<symbol  id="redPlasma" viewBox="-2.4471 -2.4471 4.8942 4.8942">
	<path fill="#4D1C1C" d="M2.4471,0c0-1.3515-1.0956-2.4471-2.4471-2.4471S-2.4471-1.3515-2.4471,0S-1.3515,2.4471,0,2.4471
		S2.4471,1.3515,2.4471,0z"/>
</symbol>
<use xlink:href="#circddd"  width="484.9426" height="484.9426" x="-242.4713" y="-242.4713" transform="matrix(1 0 0 -1 250 250.1768)" overflow="visible"/>
</svg>
