<?xml version="1.0" encoding="utf-8"?>
<!-- Generator: Adobe Illustrator 25.3.1, SVG Export Plug-In . SVG Version: 6.00 Build 0)  -->
<svg version="1.1" id="plasmaAll" xmlns="http://www.w3.org/2000/svg" xmlns:xlink="http://www.w3.org/1999/xlink" x="0px" y="0px"
	 width="100px" height="100px" viewBox="0 0 100 100" enable-background="new 0 0 100 100" xml:space="preserve">
<g>
	<path id="casing_2_" d="M25.0042,93.294C1.0935,79.4892-7.0989,48.9148,6.706,25.0042S51.0852-7.0989,74.9958,6.706
		s32.103,44.3792,18.2982,68.2899S48.9148,107.0989,25.0042,93.294z M50,2.6113L12.95,20.4536L3.7994,60.545l25.6394,32.1508
		h41.1224L96.2006,60.545L87.05,20.4536L50,2.6113z"/>
	<path id="redPlasma_2_" fill="#4D1C1C" d="M62.2335,24.4475c0,6.7564-5.4771,12.2335-12.2335,12.2335
		s-12.2335-5.4771-12.2335-12.2335S43.2436,12.214,50,12.214S62.2335,17.6911,62.2335,24.4475z"/>
	<path id="bluePlasma_2_" fill="#1C334D" d="M21.7541,52.1817c5.8512-3.3782,13.3331-1.3734,16.7113,4.4778
		c3.3782,5.8512,1.3734,13.3331-4.4778,16.7113c-5.8512,3.3782-13.3331,1.3734-16.7113-4.4778S15.9029,55.5599,21.7541,52.1817z"/>
	<path id="greenPlasma_2_" fill="#334D1C" d="M66.0124,73.3708c-5.8512-3.3782-7.856-10.8601-4.4778-16.7113
		s10.8601-7.856,16.7113-4.4778c5.8512,3.3782,7.856,10.8601,4.4778,16.7113C79.3455,74.7442,71.8636,76.749,66.0124,73.3708z"/>
</g>
<path id="outCircle_2_" fill="none" stroke="#000000" stroke-miterlimit="10" d="M-451.6991-16.109
	c0,133.8442-108.5021,242.3463-242.3463,242.3463S-936.3917,117.7351-936.3917-16.109s108.5021-242.3463,242.3463-242.3463
	S-451.6991-149.9532-451.6991-16.109z"/>
</svg>
