<?xml version="1.0" encoding="utf-8"?>
<!-- Generator: Adobe Illustrator 25.3.1, SVG Export Plug-In . SVG Version: 6.00 Build 0)  -->
<svg version="1.1" id="segments" xmlns="http://www.w3.org/2000/svg" xmlns:xlink="http://www.w3.org/1999/xlink" x="0px" y="0px"
	 width="300px" height="200px" viewBox="0 0 300 200" enable-background="new 0 0 300 200" xml:space="preserve">
<g id="degree340">
	<path fill="#808080" d="M293.7,25.7l-7.3,58.6c4.5-4.8,8.2-10.6,10.6-17.2C302.1,52.9,300.5,37.9,293.7,25.7z"/>
	<path fill="#808080" d="M295.7,70.4L247.9,100C268,100.8,287.2,89.4,295.7,70.4z"/>
	<path fill="#808080" d="M261.5,98.7L210,79.9c5.6,7.6,13.4,13.6,22.8,17C242.4,100.4,252.2,100.8,261.5,98.7z"/>
	<path fill="#808080" d="M219.3,89.5l-17.4-53.4C196.1,56.2,203.5,77.2,219.3,89.5z"/>
	<path fill="#808080" d="M203,32.9c-2.4,6.6-3.3,13.5-2.9,20l31.8-49.5C218.9,8.5,208.1,18.8,203,32.9z"/>
	<path fill="#808080" d="M267.1,3c-3.4-1.2-6.9-2.1-10.3-2.6l42.9,43.7C297.5,26,285.4,9.7,267.1,3z"/>
	<circle fill="#808080" cx="250" cy="50" r="6.1"/>
	<circle fill="#808080" cx="271.8" cy="57.9" r="6.1"/>
	<circle fill="#808080" cx="246" cy="27.1" r="6.1"/>
	<circle fill="#808080" cx="232.2" cy="64.9" r="6.1"/>
	<path fill="#808080" d="M267.1,3c-18.3-6.7-38.1-2-51.4,10.6l60.4-6.3C273.3,5.6,270.3,4.2,267.1,3z"/>
	<rect y="190" fill="#808080" width="300" height="10"/>
</g>
</svg>
