<?xml version="1.0" encoding="utf-8"?>
<!-- Generator: Adobe Illustrator 25.3.1, SVG Export Plug-In . SVG Version: 6.00 Build 0)  -->
<svg version="1.1" id="segments" xmlns="http://www.w3.org/2000/svg" xmlns:xlink="http://www.w3.org/1999/xlink" x="0px" y="0px"
	 width="300px" height="200px" viewBox="0 0 300 200" enable-background="new 0 0 300 200" xml:space="preserve">
<g id="degree240">
	<path fill="#808080" d="M266.4,97.2l-56.5-17.4c4,5.3,9,10,15.1,13.5C238.1,100.9,253.1,101.8,266.4,97.2z"/>
	<path fill="#808080" d="M222,91.5l-20.9-52.2C196.8,58.9,204.8,79.8,222,91.5z"/>
	<path fill="#808080" d="M200.1,52.8l27.3-47.4C219,9.6,211.7,16.3,206.7,25S199.5,43.4,200.1,52.8z"/>
	<path fill="#808080" d="M216.4,12.9L272,5.1C253.3-4.1,231.3-0.5,216.4,12.9z"/>
	<path fill="#808080" d="M275,6.7c-6.1-3.5-12.7-5.6-19.2-6.3l43.3,39.9C296.3,26.6,288,14.2,275,6.7z"/>
	<path fill="#808080" d="M293.3,75c1.8-3.1,3.3-6.4,4.3-9.7L247.1,100C265.4,100.9,283.6,91.9,293.3,75z"/>
	<circle fill="#808080" cx="250" cy="50" r="6.1"/>
	<circle fill="#808080" cx="238.4" cy="70.1" r="6.1"/>
	<circle fill="#808080" cx="273.2" cy="50" r="6.1"/>
	<circle fill="#808080" cx="238.4" cy="29.9" r="6.1"/>
	<path fill="#808080" d="M293.3,75c9.8-16.9,8.6-37.2-1.6-52.5l-4.3,60.6C289.7,80.7,291.6,77.9,293.3,75z"/>
	<rect x="0" y="190" fill="#808080" width="300" height="10"/>
</g>
</svg>
