<?xml version="1.0" encoding="utf-8"?>
<!-- Generator: Adobe Illustrator 25.3.1, SVG Export Plug-In . SVG Version: 6.00 Build 0)  -->
<svg version="1.1" id="segments" xmlns="http://www.w3.org/2000/svg" xmlns:xlink="http://www.w3.org/1999/xlink" x="0px" y="0px"
	 width="300px" height="200px" viewBox="0 0 300 200" enable-background="new 0 0 300 200" xml:space="preserve">
<g id="degree230">
	<path fill="#808080" d="M257.9,99.3l-52.6-26.9c3,5.9,7.2,11.4,12.5,15.9C229.4,98,244.1,101.6,257.9,99.3z"/>
	<path fill="#808080" d="M215.2,86l-11.5-55.1C196.1,49.5,200.3,71.5,215.2,86z"/>
	<path fill="#808080" d="M200.4,44.1l35.2-41.9c-9,2.6-17.3,7.9-23.8,15.6C205.2,25.6,201.5,34.7,200.4,44.1z"/>
	<path fill="#808080" d="M223.4,7.7l56.1,1.9C262.6-2.7,240.3-3,223.4,7.7z"/>
	<path fill="#808080" d="M282.1,11.7c-5.4-4.5-11.5-7.7-17.8-9.6L300,48.9C299.7,35,293.6,21.3,282.1,11.7z"/>
	<path fill="#808080" d="M288.3,82.1c2.3-2.8,4.3-5.8,6-8.8l-55.8,25.4C256.3,102.8,275.8,97.1,288.3,82.1z"/>
	<circle fill="#808080" cx="250" cy="50" r="6.1"/>
	<circle fill="#808080" cx="235.1" cy="67.8" r="6.1"/>
	<circle fill="#808080" cx="272.9" cy="54" r="6.1"/>
	<circle fill="#808080" cx="242.1" cy="28.2" r="6.1"/>
	<path fill="#808080" d="M288.3,82.1c12.5-14.9,14.9-35.2,7.6-52l-14.7,58.9C283.8,87.1,286.1,84.7,288.3,82.1z"/>
	<rect x="0" y="190" fill="#808080" width="300" height="10"/>
</g>
</svg>
