<?xml version="1.0" encoding="utf-8"?>
<!-- Generator: Adobe Illustrator 25.3.1, SVG Export Plug-In . SVG Version: 6.00 Build 0)  -->
<svg version="1.1" id="segments" xmlns="http://www.w3.org/2000/svg" xmlns:xlink="http://www.w3.org/1999/xlink" x="0px" y="0px"
	 width="300px" height="200px" viewBox="0 0 300 200" enable-background="new 0 0 300 200" xml:space="preserve">
<g id="degree030">
	<path fill="#808080" d="M259.4,0.9l40.2,43.3c-0.8-6.6-2.8-13.1-6.3-19.2C285.8,11.9,273.2,3.6,259.4,0.9z"/>
	<path fill="#808080" d="M295,28.1l-8,55.7C300.5,68.9,304.1,46.8,295,28.1z"/>
	<path fill="#808080" d="M294.6,72.5l-47.4,27.3c9.4,0.6,19-1.5,27.7-6.5S290.4,81,294.6,72.5z"/>
	<path fill="#808080" d="M260.5,98.9l-52.1-21C220.1,95.2,241,103.1,260.5,98.9z"/>
	<path fill="#808080" d="M206.7,75c3.5,6.1,8.2,11.2,13.5,15.1l-17.5-56.2C198.2,47.1,199.2,62,206.7,75z"/>
	<path fill="#808080" d="M225,6.7c-3.1,1.8-6,3.9-8.6,6.3l61.1-4.8C262.1-1.8,241.9-3.1,225,6.7z"/>
	<circle fill="#808080" cx="250" cy="50" r="6.1"/>
	<circle fill="#808080" cx="270.1" cy="38.4" r="6.1"/>
	<circle fill="#808080" cx="229.9" cy="38.4" r="6.1"/>
	<circle fill="#808080" cx="250" cy="73.2" r="6.1"/>
	<path fill="#808080" d="M225,6.7c-16.9,9.8-26,27.9-24.9,46.3l34-50.3C231,3.6,227.9,5,225,6.7z"/>
	<rect x="0" y="190" fill="#808080" width="300" height="10"/>
</g>
</svg>
