<?xml version="1.0" encoding="utf-8"?>
<!-- Generator: Adobe Illustrator 25.3.1, SVG Export Plug-In . SVG Version: 6.00 Build 0)  -->
<svg version="1.1" id="segments" xmlns="http://www.w3.org/2000/svg" xmlns:xlink="http://www.w3.org/1999/xlink" x="0px" y="0px"
	 width="300px" height="200px" viewBox="0 0 300 200" enable-background="new 0 0 300 200" xml:space="preserve">
<g id="degree320">
	<path fill="#808080" d="M299.3,42.1l-26.9,52.6c5.9-3,11.4-7.2,15.9-12.5C298,70.6,301.6,55.9,299.3,42.1z"/>
	<path fill="#808080" d="M286,84.8l-55.1,11.5C249.5,103.9,271.5,99.7,286,84.8z"/>
	<path fill="#808080" d="M244.1,99.6l-41.9-35.2c2.6,9,7.9,17.3,15.6,23.8C225.6,94.8,234.7,98.5,244.1,99.6z"/>
	<path fill="#808080" d="M207.7,76.6l1.9-56.1C197.3,37.4,197,59.7,207.7,76.6z"/>
	<path fill="#808080" d="M211.7,17.9c-4.5,5.4-7.7,11.5-9.6,17.8L248.9,0C235,0.3,221.3,6.4,211.7,17.9z"/>
	<path fill="#808080" d="M282.1,11.7c-2.8-2.3-5.8-4.3-8.8-6l25.4,55.8C302.8,43.7,297.1,24.2,282.1,11.7z"/>
	<circle fill="#808080" cx="250" cy="50" r="6.1"/>
	<circle fill="#808080" cx="267.8" cy="64.9" r="6.1"/>
	<circle fill="#808080" cx="254" cy="27.1" r="6.1"/>
	<circle fill="#808080" cx="228.2" cy="57.9" r="6.1"/>
	<path fill="#808080" d="M282.1,11.7c-14.9-12.5-35.2-14.9-52-7.6l58.9,14.7C287.1,16.2,284.7,13.9,282.1,11.7z"/>
	<rect x="0" y="190" fill="#808080" width="300" height="10"/>
</g>
</svg>
