<?xml version="1.0" encoding="utf-8"?>
<!-- Generator: Adobe Illustrator 25.3.1, SVG Export Plug-In . SVG Version: 6.00 Build 0)  -->
<svg version="1.1" id="segments" xmlns="http://www.w3.org/2000/svg" xmlns:xlink="http://www.w3.org/1999/xlink" x="0px" y="0px"
	 width="300px" height="200px" viewBox="0 0 300 200" enable-background="new 0 0 300 200" xml:space="preserve">
<g id="degree350">
	<path fill="#808080" d="M288.8,18.5l3,59c3.6-5.6,6.3-11.9,7.5-18.8C301.9,43.8,297.6,29.4,288.8,18.5z"/>
	<path fill="#808080" d="M298.5,62.1l-41.9,37.5C276.6,96.9,293.4,82.3,298.5,62.1z"/>
	<path fill="#808080" d="M269.7,95.9l-53.9-9.5c6.8,6.5,15.5,11.1,25.5,12.8C251.3,101,261,99.7,269.7,95.9z"/>
	<path fill="#808080" d="M226.7,94.2l-26.4-49.5C198,65.4,208.9,84.9,226.7,94.2z"/>
	<path fill="#808080" d="M200.8,41.3c-1.2,6.9-0.9,13.9,0.6,20.2L224,7.2C212.2,14.5,203.4,26.5,200.8,41.3z"/>
	<path fill="#808080" d="M258.7,0.8c-3.5-0.6-7.2-0.9-10.6-0.8l49.9,35.6C292.6,18.1,277.9,4.1,258.7,0.8z"/>
	<circle fill="#808080" cx="250" cy="50" r="6.1"/>
	<circle fill="#808080" cx="272.8" cy="54" r="6.1"/>
	<circle fill="#808080" cx="242.1" cy="28.2" r="6.1"/>
	<circle fill="#808080" cx="235.1" cy="67.8" r="6.1"/>
	<path fill="#808080" d="M258.7,0.8c-19.2-3.4-37.9,4.7-48.8,19.4l58.4-16.7C265.2,2.2,262,1.4,258.7,0.8z"/>
	<rect x="0" y="190" fill="#808080" width="300" height="10"/>
</g>
</svg>
