<?xml version="1.0" encoding="utf-8"?>
<!-- Generator: Adobe Illustrator 25.3.1, SVG Export Plug-In . SVG Version: 6.00 Build 0)  -->
<svg version="1.1" id="segments" xmlns="http://www.w3.org/2000/svg" xmlns:xlink="http://www.w3.org/1999/xlink" x="0px" y="0px"
	 width="300px" height="200px" viewBox="0 0 300 200" enable-background="new 0 0 300 200" xml:space="preserve">
<g id="degree300">
	<path fill="#808080" d="M299.1,59.4l-43.3,40.2c6.6-0.8,13.1-2.8,19.2-6.3C288.1,85.8,296.4,73.2,299.1,59.4z"/>
	<path fill="#808080" d="M271.9,95l-55.7-8C231.1,100.5,253.2,104.1,271.9,95z"/>
	<path fill="#808080" d="M227.5,94.6l-27.4-47.4c-0.6,9.4,1.5,19,6.5,27.7S219,90.4,227.5,94.6z"/>
	<path fill="#808080" d="M201.1,60.5l21-52.1C204.8,20.1,196.9,41,201.1,60.5z"/>
	<path fill="#808080" d="M225,6.7c-6.1,3.5-11.2,8.2-15.1,13.5l56.2-17.5C252.9-1.8,238-0.8,225,6.7z"/>
	<path fill="#808080" d="M293.3,25c-1.8-3.1-3.9-6-6.3-8.6l4.8,61.1C301.8,62.1,303.1,41.9,293.3,25z"/>
	<circle fill="#808080" cx="250" cy="50" r="6.1"/>
	<circle fill="#808080" cx="261.6" cy="70.1" r="6.1"/>
	<circle fill="#808080" cx="261.6" cy="29.9" r="6.1"/>
	<circle fill="#808080" cx="226.8" cy="50" r="6.1"/>
	<path fill="#808080" d="M293.3,25C283.6,8.1,265.4-1,247,0.1l50.3,34C296.4,31,295,27.9,293.3,25z"/>
	<rect x="0" y="190" fill="#808080" width="300" height="10"/>
</g>
</svg>
