<?xml version="1.0" encoding="utf-8"?>
<!-- Generator: Adobe Illustrator 25.3.1, SVG Export Plug-In . SVG Version: 6.00 Build 0)  -->
<svg version="1.1" id="segments" xmlns="http://www.w3.org/2000/svg" xmlns:xlink="http://www.w3.org/1999/xlink" x="0px" y="0px"
	 width="300px" height="200px" viewBox="0 0 300 200" enable-background="new 0 0 300 200" xml:space="preserve">
<g id="degree280">
	<path fill="#808080" d="M292.9,75.6l-54.4,23c6.5,1.5,13.3,1.8,20.2,0.6C273.6,96.6,285.7,87.7,292.9,75.6z"/>
	<path fill="#808080" d="M255.2,99.7l-49.6-26.6C215,91,234.5,101.9,255.2,99.7z"/>
	<path fill="#808080" d="M213.6,84.2l-9.5-53.9c-3.8,8.6-5.1,18.4-3.3,28.3S207.1,77.4,213.6,84.2z"/>
	<path fill="#808080" d="M200.5,43.2L238,1.4C217.7,6.4,203.2,23.3,200.5,43.2z"/>
	<path fill="#808080" d="M241.3,0.8C234.4,2,228,4.6,222.5,8.2l58.8,2.7C270.4,2.3,256.1-1.8,241.3,0.8z"/>
	<path fill="#808080" d="M299.2,41.3c-0.6-3.5-1.6-7-2.9-10.2l-16.4,59C294.5,79.1,302.6,60.5,299.2,41.3z"/>
	<circle fill="#808080" cx="250" cy="50" r="6.1"/>
	<circle fill="#808080" cx="254" cy="72.8" r="6.1"/>
	<circle fill="#808080" cx="267.8" cy="35.1" r="6.1"/>
	<circle fill="#808080" cx="228.2" cy="42.1" r="6.1"/>
	<path fill="#808080" d="M299.2,41.3c-3.4-19.2-17.4-34-34.9-39.2L300,51.2C300.1,48,299.8,44.7,299.2,41.3z"/>
	<rect y="190" fill="#808080" width="300" height="10"/>
</g>
</svg>
