<?xml version="1.0" encoding="utf-8"?>
<!-- Generator: Adobe Illustrator 25.3.1, SVG Export Plug-In . SVG Version: 6.00 Build 0)  -->
<svg version="1.1" id="segments" xmlns="http://www.w3.org/2000/svg" xmlns:xlink="http://www.w3.org/1999/xlink" x="0px" y="0px"
	 width="300px" height="200px" viewBox="0 0 300 200" enable-background="new 0 0 300 200" xml:space="preserve">
<g id="degree130">
	<path fill="#808080" d="M200,49.2l35.6-47.1c-6.3,1.9-12.4,5.1-17.8,9.6C206.3,21.4,200.3,35.2,200,49.2z"/>
	<path fill="#808080" d="M220.6,9.5l56.2-1.8C259.8-3,237.5-2.7,220.6,9.5z"/>
	<path fill="#808080" d="M264.4,2.1L299.6,44c-1-9.3-4.8-18.4-11.3-26.2S273.5,4.9,264.4,2.1z"/>
	<path fill="#808080" d="M296.3,31.1L284.7,86C299.7,71.6,303.9,49.7,296.3,31.1z"/>
	<path fill="#808080" d="M282.1,88.3c5.4-4.5,9.6-10,12.5-15.9l-52.3,27C256.1,101.5,270.6,97.9,282.1,88.3z"/>
	<path fill="#808080" d="M211.7,82.1c2.3,2.8,4.9,5.3,7.7,7.4L204,30.2C196.9,47.1,199.2,67.2,211.7,82.1z"/>
	<circle fill="#808080" cx="250" cy="50" r="6.1"/>
	<circle fill="#808080" cx="235.1" cy="32.2" r="6.1"/>
	<circle fill="#808080" cx="242.1" cy="71.8" r="6.1"/>
	<circle fill="#808080" cx="272.9" cy="46" r="6.1"/>
	<path fill="#808080" d="M211.7,82.1c12.5,14.9,32,20.8,49.9,16.5l-55.5-24.7C207.6,76.8,209.5,79.5,211.7,82.1z"/>
	<rect y="190" fill="#808080" width="300" height="10"/>
</g>
</svg>
