<?xml version="1.0" encoding="utf-8"?>
<!-- Generator: Adobe Illustrator 25.3.1, SVG Export Plug-In . SVG Version: 6.00 Build 0)  -->
<svg version="1.1" id="segments" xmlns="http://www.w3.org/2000/svg" xmlns:xlink="http://www.w3.org/1999/xlink" x="0px" y="0px"
	 width="300px" height="200px" viewBox="0 0 300 200" enable-background="new 0 0 300 200" xml:space="preserve">
<g id="degree050">
	<path fill="#808080" d="M242.1,0.7l52.6,26.9c-3-5.9-7.2-11.4-12.5-15.9C270.6,2,255.9-1.6,242.1,0.7z"/>
	<path fill="#808080" d="M284.8,14l11.5,55.1C303.9,50.5,299.7,28.5,284.8,14z"/>
	<path fill="#808080" d="M299.6,55.9l-35.2,41.9c9-2.6,17.3-7.9,23.8-15.6S298.5,65.3,299.6,55.9z"/>
	<path fill="#808080" d="M276.6,92.3l-56.1-1.9C237.4,102.7,259.7,103,276.6,92.3z"/>
	<path fill="#808080" d="M217.9,88.3c5.4,4.5,11.5,7.7,17.8,9.6L200,51.1C200.3,65,206.4,78.7,217.9,88.3z"/>
	<path fill="#808080" d="M211.7,17.9c-2.3,2.8-4.3,5.8-6,8.8l55.8-25.4C243.7-2.8,224.2,2.9,211.7,17.9z"/>
	<circle fill="#808080" cx="250" cy="50" r="6.1"/>
	<circle fill="#808080" cx="264.9" cy="32.2" r="6.1"/>
	<circle fill="#808080" cx="227.1" cy="46" r="6.1"/>
	<circle fill="#808080" cx="257.9" cy="71.8" r="6.1"/>
	<path fill="#808080" d="M211.7,17.9c-12.5,14.9-14.9,35.2-7.6,52l14.7-58.9C216.2,12.9,213.9,15.3,211.7,17.9z"/>
	<rect x="0" y="190" fill="#808080" width="300" height="10"/>
</g>
</svg>
