<?xml version="1.0" encoding="utf-8"?>
<!-- Generator: Adobe Illustrator 25.3.1, SVG Export Plug-In . SVG Version: 6.00 Build 0)  -->
<svg version="1.1" id="segments" xmlns="http://www.w3.org/2000/svg" xmlns:xlink="http://www.w3.org/1999/xlink" x="0px" y="0px"
	 width="300px" height="200px" viewBox="0 0 300 200" enable-background="new 0 0 300 200" xml:space="preserve">
<g id="degree090">
	<path fill="#808080" d="M212.2,17.3l57.6-13.2C263.7,1.5,257,0,250,0C234.9,0,221.4,6.7,212.2,17.3z"/>
	<path fill="#808080" d="M253.5,0.1l44.2,34.8C291.6,15.7,274.3,1.6,253.5,0.1z"/>
	<path fill="#808080" d="M291.8,22.6v54.7C297,69.5,300,60.1,300,50S297,30.5,291.8,22.6z"/>
	<path fill="#808080" d="M297.6,65.3l-44.2,34.6C274.2,98.5,291.5,84.4,297.6,65.3z"/>
	<path fill="#808080" d="M250,100c7,0,13.8-1.5,19.8-4.1L212.4,83C221.6,93.4,235,100,250,100z"/>
	<path fill="#808080" d="M200,50c0,3.6,0.4,7.2,1.1,10.6l26.4-55.3C211.2,13.6,200,30.5,200,50z"/>
	<circle fill="#808080" cx="250" cy="50" r="6.1"/>
	<circle fill="#808080" cx="250" cy="26.8" r="6.1"/>
	<circle fill="#808080" cx="229.9" cy="61.6" r="6.1"/>
	<circle fill="#808080" cx="270.1" cy="61.6" r="6.1"/>
	<path fill="#808080" d="M200,50c0,19.5,11.2,36.5,27.6,44.7L201,40.1C200.3,43.3,200,46.6,200,50z"/>
	<rect x="0" y="190" fill="#808080" width="300" height="10"/>
</g>
</svg>
