<?xml version="1.0" encoding="utf-8"?>
<!-- Generator: Adobe Illustrator 25.3.1, SVG Export Plug-In . SVG Version: 6.00 Build 0)  -->
<svg version="1.1" id="segments" xmlns="http://www.w3.org/2000/svg" xmlns:xlink="http://www.w3.org/1999/xlink" x="0px" y="0px"
	 width="300px" height="200px" viewBox="0 0 300 200" enable-background="new 0 0 300 200" xml:space="preserve">
<g id="degree310">
	<path fill="#808080" d="M300,50.8l-35.6,47.1c6.3-1.9,12.4-5.1,17.8-9.6C293.7,78.6,299.7,64.8,300,50.8z"/>
	<path fill="#808080" d="M279.4,90.5l-56.2,1.8C240.2,103,262.5,102.7,279.4,90.5z"/>
	<path fill="#808080" d="M235.6,97.9L200.4,56c1,9.3,4.8,18.4,11.3,26.2C218.2,89.9,226.5,95.1,235.6,97.9z"/>
	<path fill="#808080" d="M203.7,68.9L215.3,14C200.3,28.4,196.1,50.3,203.7,68.9z"/>
	<path fill="#808080" d="M217.9,11.7c-5.4,4.5-9.6,10-12.5,15.9l52.3-27C243.9-1.5,229.4,2.1,217.9,11.7z"/>
	<path fill="#808080" d="M288.3,17.9c-2.3-2.8-4.9-5.3-7.7-7.4L296,69.8C303.1,52.9,300.8,32.8,288.3,17.9z"/>
	<circle fill="#808080" cx="250" cy="50" r="6.1"/>
	<circle fill="#808080" cx="264.9" cy="67.8" r="6.1"/>
	<circle fill="#808080" cx="257.9" cy="28.2" r="6.1"/>
	<circle fill="#808080" cx="227.1" cy="54" r="6.1"/>
	<path fill="#808080" d="M288.3,17.9c-12.5-14.9-32-20.8-49.9-16.5l55.5,24.7C292.4,23.2,290.5,20.5,288.3,17.9z"/>
	<rect y="190" fill="#808080" width="300" height="10"/>
</g>
</svg>
