<?xml version="1.0" encoding="utf-8"?>
<!-- Generator: Adobe Illustrator 25.3.1, SVG Export Plug-In . SVG Version: 6.00 Build 0)  -->
<svg version="1.1" id="segments" xmlns="http://www.w3.org/2000/svg" xmlns:xlink="http://www.w3.org/1999/xlink" x="0px" y="0px"
	 width="300px" height="200px" viewBox="0 0 300 200" enable-background="new 0 0 300 200" xml:space="preserve">
<g id="degree220">
	<path fill="#808080" d="M249.2,100l-47.1-35.6c1.9,6.3,5.1,12.4,9.6,17.8C221.4,93.7,235.2,99.7,249.2,100z"/>
	<path fill="#808080" d="M209.5,79.4l-1.8-56.2C197,40.2,197.3,62.5,209.5,79.4z"/>
	<path fill="#808080" d="M202.1,35.6L244,0.4c-9.3,1-18.4,4.8-26.2,11.3C210.1,18.2,204.9,26.5,202.1,35.6z"/>
	<path fill="#808080" d="M231.1,3.7L286,15.3C271.6,0.3,249.7-3.9,231.1,3.7z"/>
	<path fill="#808080" d="M288.3,17.9c-4.5-5.4-10-9.6-15.9-12.5l27,52.3C301.5,43.9,297.9,29.4,288.3,17.9z"/>
	<path fill="#808080" d="M282.1,88.3c2.8-2.3,5.3-4.9,7.4-7.7L230.2,96C247.1,103.1,267.2,100.8,282.1,88.3z"/>
	<circle fill="#808080" cx="250" cy="50" r="6.1"/>
	<circle fill="#808080" cx="232.2" cy="64.9" r="6.1"/>
	<circle fill="#808080" cx="271.8" cy="57.9" r="6.1"/>
	<circle fill="#808080" cx="246" cy="27.1" r="6.1"/>
	<path fill="#808080" d="M282.1,88.3c14.9-12.5,20.8-32,16.5-49.9l-24.7,55.5C276.8,92.4,279.5,90.5,282.1,88.3z"/>
	<rect y="190" fill="#808080" width="300" height="10"/>
</g>
</svg>
