<?xml version="1.0" encoding="utf-8"?>
<!-- Generator: Adobe Illustrator 25.3.1, SVG Export Plug-In . SVG Version: 6.00 Build 0)  -->
<svg version="1.1" id="segments" xmlns="http://www.w3.org/2000/svg" xmlns:xlink="http://www.w3.org/1999/xlink" x="0px" y="0px"
	 width="300px" height="200px" viewBox="0 0 300 200" enable-background="new 0 0 300 200" xml:space="preserve">
<g id="degree040">
	<path fill="#808080" d="M250.8,0l47.1,35.6c-1.9-6.3-5.1-12.4-9.6-17.8C278.6,6.3,264.8,0.3,250.8,0z"/>
	<path fill="#808080" d="M290.5,20.6l1.8,56.2C303,59.8,302.7,37.5,290.5,20.6z"/>
	<path fill="#808080" d="M297.9,64.4L256,99.6c9.3-1,18.4-4.8,26.2-11.3C289.9,81.8,295.1,73.5,297.9,64.4z"/>
	<path fill="#808080" d="M268.9,96.3L214,84.7C228.4,99.7,250.3,103.9,268.9,96.3z"/>
	<path fill="#808080" d="M211.7,82.1c4.5,5.4,10,9.6,15.9,12.5l-27-52.3C198.5,56.1,202.1,70.6,211.7,82.1z"/>
	<path fill="#808080" d="M217.9,11.7c-2.8,2.3-5.3,4.9-7.4,7.7L269.8,4C252.9-3.1,232.8-0.8,217.9,11.7z"/>
	<circle fill="#808080" cx="250" cy="50" r="6.1"/>
	<circle fill="#808080" cx="267.8" cy="35.1" r="6.1"/>
	<circle fill="#808080" cx="228.2" cy="42.1" r="6.1"/>
	<circle fill="#808080" cx="254" cy="72.9" r="6.1"/>
	<path fill="#808080" d="M217.9,11.7c-14.9,12.5-20.8,32-16.5,49.9l24.7-55.5C223.2,7.6,220.5,9.5,217.9,11.7z"/>
	<rect y="190" fill="#808080" width="300" height="10"/>
</g>
</svg>
