<?xml version="1.0" encoding="utf-8"?>
<!-- Generator: Adobe Illustrator 25.3.1, SVG Export Plug-In . SVG Version: 6.00 Build 0)  -->
<svg version="1.1" id="segments" xmlns="http://www.w3.org/2000/svg" xmlns:xlink="http://www.w3.org/1999/xlink" x="0px" y="0px"
	 width="300px" height="200px" viewBox="0 0 300 200" enable-background="new 0 0 300 200" xml:space="preserve">
<g id="degree120">
	<path fill="#808080" d="M200.9,40.6l43.3-40.2c-6.6,0.8-13.1,2.8-19.2,6.3C211.9,14.2,203.6,26.8,200.9,40.6z"/>
	<path fill="#808080" d="M228.1,5l55.7,8C268.9-0.5,246.8-4.1,228.1,5z"/>
	<path fill="#808080" d="M272.5,5.4l27.4,47.4c0.6-9.4-1.5-19-6.5-27.7S281,9.6,272.5,5.4z"/>
	<path fill="#808080" d="M298.9,39.5l-21,52.1C295.2,79.9,303.1,59,298.9,39.5z"/>
	<path fill="#808080" d="M275,93.3c6.1-3.5,11.2-8.2,15.1-13.5l-56.2,17.5C247.1,101.8,262,100.8,275,93.3z"/>
	<path fill="#808080" d="M206.7,75c1.8,3.1,3.9,6,6.3,8.6l-4.8-61.1C198.2,37.9,196.9,58.1,206.7,75z"/>
	<circle fill="#808080" cx="250" cy="50" r="6.1"/>
	<circle fill="#808080" cx="238.4" cy="29.9" r="6.1"/>
	<circle fill="#808080" cx="238.4" cy="70.1" r="6.1"/>
	<circle fill="#808080" cx="273.2" cy="50" r="6.1"/>
	<path fill="#808080" d="M206.7,75c9.8,16.9,27.9,26,46.3,24.9l-50.3-34C203.6,69,205,72.1,206.7,75z"/>
	<rect x="0" y="190" fill="#808080" width="300" height="10"/>
</g>
</svg>
