<?xml version="1.0" encoding="utf-8"?>
<!-- Generator: Adobe Illustrator 25.3.1, SVG Export Plug-In . SVG Version: 6.00 Build 0)  -->
<svg version="1.1" id="segments" xmlns="http://www.w3.org/2000/svg" xmlns:xlink="http://www.w3.org/1999/xlink" x="0px" y="0px"
	 width="300px" height="200px" viewBox="0 0 300 200" enable-background="new 0 0 300 200" xml:space="preserve">
<g id="degree170">
	<path fill="#808080" d="M211.2,81.5l-3-59c-3.6,5.6-6.3,11.9-7.5,18.8C198.1,56.2,202.4,70.6,211.2,81.5z"/>
	<path fill="#808080" d="M201.5,37.9l41.9-37.5C223.4,3.1,206.6,17.7,201.5,37.9z"/>
	<path fill="#808080" d="M230.3,4.1l53.9,9.5c-6.8-6.5-15.5-11.1-25.5-12.8C248.7-1,239,0.3,230.3,4.1z"/>
	<path fill="#808080" d="M273.3,5.8l26.4,49.5C302,34.6,291.1,15.1,273.3,5.8z"/>
	<path fill="#808080" d="M299.2,58.7c1.2-6.9,0.9-13.9-0.6-20.2L276,92.8C287.8,85.5,296.6,73.5,299.2,58.7z"/>
	<path fill="#808080" d="M241.3,99.2c3.5,0.6,7.2,0.9,10.6,0.8l-49.9-35.6C207.4,81.9,222.1,95.9,241.3,99.2z"/>
	<circle fill="#808080" cx="250" cy="50" r="6.1"/>
	<circle fill="#808080" cx="227.2" cy="46" r="6.1"/>
	<circle fill="#808080" cx="257.9" cy="71.8" r="6.1"/>
	<circle fill="#808080" cx="264.9" cy="32.2" r="6.1"/>
	<path fill="#808080" d="M241.3,99.2c19.2,3.4,37.9-4.7,48.8-19.4l-58.4,16.7C234.8,97.8,238,98.6,241.3,99.2z"/>
	<rect x="0" y="190" fill="#808080" width="300" height="10"/>
</g>
</svg>
