<?xml version="1.0" encoding="utf-8"?>
<!-- Generator: Adobe Illustrator 25.3.1, SVG Export Plug-In . SVG Version: 6.00 Build 0)  -->
<svg version="1.1" id="segments" xmlns="http://www.w3.org/2000/svg" xmlns:xlink="http://www.w3.org/1999/xlink" x="0px" y="0px"
	 width="300px" height="200px" viewBox="0 0 300 200" enable-background="new 0 0 300 200" xml:space="preserve">
<g id="degree180">
	<path fill="#808080" d="M217.3,87.8l-13.2-57.6C201.5,36.3,200,43,200,50C200,65.1,206.7,78.6,217.3,87.8z"/>
	<path fill="#808080" d="M200.1,46.5l34.8-44.2C215.7,8.4,201.6,25.7,200.1,46.5z"/>
	<path fill="#808080" d="M222.6,8.2h54.7C269.5,3,260.1,0,250,0S230.5,3,222.6,8.2z"/>
	<path fill="#808080" d="M265.3,2.4l34.6,44.2C298.5,25.8,284.4,8.5,265.3,2.4z"/>
	<path fill="#808080" d="M300,50c0-7-1.5-13.8-4.1-19.8L283,87.6C293.4,78.4,300,65,300,50z"/>
	<path fill="#808080" d="M250,100c3.6,0,7.2-0.4,10.6-1.1l-55.3-26.4C213.6,88.8,230.5,100,250,100z"/>
	<circle fill="#808080" cx="250" cy="50" r="6.1"/>
	<circle fill="#808080" cx="226.8" cy="50" r="6.1"/>
	<circle fill="#808080" cx="261.6" cy="70.1" r="6.1"/>
	<circle fill="#808080" cx="261.6" cy="29.9" r="6.1"/>
	<path fill="#808080" d="M250,100c19.5,0,36.5-11.2,44.7-27.6L240.1,99C243.3,99.7,246.6,100,250,100z"/>
	<rect x="0" y="190" fill="#808080" width="300" height="10"/>
</g>
</svg>
