<?xml version="1.0" encoding="utf-8"?>
<!-- Generator: Adobe Illustrator 25.3.1, SVG Export Plug-In . SVG Version: 6.00 Build 0)  -->
<svg version="1.1" id="segments" xmlns="http://www.w3.org/2000/svg" xmlns:xlink="http://www.w3.org/1999/xlink" x="0px" y="0px"
	 width="300px" height="200px" viewBox="0 0 300 200" enable-background="new 0 0 300 200" xml:space="preserve">
<g id="degree110">
	<path fill="#808080" d="M203.3,32.2l49.6-32.1c-6.6-0.4-13.4,0.5-20,2.9C218.7,8.2,208.3,19.1,203.3,32.2z"/>
	<path fill="#808080" d="M236.2,1.9l53.4,17.6C277.4,3.5,256.3-3.8,236.2,1.9z"/>
	<path fill="#808080" d="M279.9,10l18.7,51.4c2.2-9.1,1.8-19-1.6-28.5S287.5,15.6,279.9,10z"/>
	<path fill="#808080" d="M300,48.1l-29.7,47.6C289.3,87.3,300.8,68.1,300,48.1z"/>
	<path fill="#808080" d="M267.1,97c6.6-2.4,12.5-6.1,17.2-10.6L226,93.9C238.2,100.5,253,102.1,267.1,97z"/>
	<path fill="#808080" d="M203,67.1c1.2,3.4,2.8,6.6,4.7,9.6l5.9-61C201.1,29.1,196.3,48.8,203,67.1z"/>
	<circle fill="#808080" cx="250" cy="50" r="6.1"/>
	<circle fill="#808080" cx="242.1" cy="28.2" r="6.1"/>
	<circle fill="#808080" cx="235.1" cy="67.8" r="6.1"/>
	<circle fill="#808080" cx="272.9" cy="54" r="6.1"/>
	<path fill="#808080" d="M203,67.1c6.7,18.3,23,30.5,41.2,32.6l-43.7-42.2C201,60.7,201.9,63.9,203,67.1z"/>
	<rect x="0" y="190" fill="#808080" width="300" height="10"/>
</g>
</svg>
