<?xml version="1.0" encoding="utf-8"?>
<!-- Generator: Adobe Illustrator 25.3.1, SVG Export Plug-In . SVG Version: 6.00 Build 0)  -->
<svg version="1.1" id="segments" xmlns="http://www.w3.org/2000/svg" xmlns:xlink="http://www.w3.org/1999/xlink" x="0px" y="0px"
	 width="300px" height="200px" viewBox="0 0 300 200" enable-background="new 0 0 300 200" xml:space="preserve">
<g id="degree290">
	<path fill="#808080" d="M296.7,67.8l-49.6,32.1c6.6,0.4,13.4-0.5,20-2.9C281.3,91.8,291.7,80.9,296.7,67.8z"/>
	<path fill="#808080" d="M263.8,98.1l-53.4-17.6C222.6,96.5,243.7,103.8,263.8,98.1z"/>
	<path fill="#808080" d="M220.1,90l-18.7-51.4c-2.2,9.1-1.8,19,1.6,28.5S212.5,84.4,220.1,90z"/>
	<path fill="#808080" d="M200,51.9l29.7-47.6C210.7,12.7,199.2,31.9,200,51.9z"/>
	<path fill="#808080" d="M232.9,3c-6.6,2.4-12.5,6.1-17.2,10.6L274,6.1C261.8-0.5,247-2.1,232.9,3z"/>
	<path fill="#808080" d="M297,32.9c-1.2-3.4-2.8-6.6-4.7-9.6l-5.9,61C298.9,70.9,303.7,51.2,297,32.9z"/>
	<circle fill="#808080" cx="250" cy="50" r="6.1"/>
	<circle fill="#808080" cx="257.9" cy="71.8" r="6.1"/>
	<circle fill="#808080" cx="264.9" cy="32.2" r="6.1"/>
	<circle fill="#808080" cx="227.1" cy="46" r="6.1"/>
	<path fill="#808080" d="M297,32.9c-6.7-18.3-23-30.5-41.2-32.6l43.7,42.2C299,39.3,298.1,36.1,297,32.9z"/>
	<rect x="0" y="190" fill="#808080" width="300" height="10"/>
</g>
</svg>
