<?xml version="1.0" encoding="utf-8"?>
<!-- Generator: Adobe Illustrator 25.3.1, SVG Export Plug-In . SVG Version: 6.00 Build 0)  -->
<svg version="1.1" id="segments" xmlns="http://www.w3.org/2000/svg" xmlns:xlink="http://www.w3.org/1999/xlink" x="0px" y="0px"
	 width="300px" height="200px" viewBox="0 0 300 200" enable-background="new 0 0 300 200" xml:space="preserve">
<g id="degree140">
	<path fill="#808080" d="M200.7,57.9l26.9-52.6c-5.9,3-11.4,7.2-15.9,12.5C202,29.4,198.4,44.1,200.7,57.9z"/>
	<path fill="#808080" d="M214,15.2l55.1-11.5C250.5-3.9,228.5,0.3,214,15.2z"/>
	<path fill="#808080" d="M255.9,0.4l41.9,35.2c-2.6-9-7.9-17.3-15.6-23.8C274.4,5.2,265.3,1.5,255.9,0.4z"/>
	<path fill="#808080" d="M292.3,23.4l-1.9,56.1C302.7,62.6,303,40.3,292.3,23.4z"/>
	<path fill="#808080" d="M288.3,82.1c4.5-5.4,7.7-11.5,9.6-17.8L251.1,100C265,99.7,278.7,93.6,288.3,82.1z"/>
	<path fill="#808080" d="M217.9,88.3c2.8,2.3,5.8,4.3,8.8,6l-25.4-55.8C197.2,56.3,202.9,75.8,217.9,88.3z"/>
	<circle fill="#808080" cx="250" cy="50" r="6.1"/>
	<circle fill="#808080" cx="232.2" cy="35.1" r="6.1"/>
	<circle fill="#808080" cx="246" cy="72.9" r="6.1"/>
	<circle fill="#808080" cx="271.8" cy="42.1" r="6.1"/>
	<path fill="#808080" d="M217.9,88.3c14.9,12.5,35.2,14.9,52,7.6l-58.9-14.7C212.9,83.8,215.3,86.1,217.9,88.3z"/>
	<rect x="0" y="190" fill="#808080" width="300" height="10"/>
</g>
</svg>
