<?xml version="1.0" encoding="utf-8"?>
<!-- Generator: Adobe Illustrator 25.3.1, SVG Export Plug-In . SVG Version: 6.00 Build 0)  -->
<svg version="1.1" id="segments" xmlns="http://www.w3.org/2000/svg" xmlns:xlink="http://www.w3.org/1999/xlink" x="0px" y="0px"
	 width="300px" height="200px" viewBox="0 0 300 200" enable-background="new 0 0 300 200" xml:space="preserve">
<g id="degree360">
	<path fill="#808080" d="M282.7,12.2l13.2,57.6C298.5,63.7,300,57,300,50C300,34.9,293.3,21.4,282.7,12.2z"/>
	<path fill="#808080" d="M299.9,53.5l-34.8,44.2C284.3,91.6,298.4,74.3,299.9,53.5z"/>
	<path fill="#808080" d="M277.4,91.8h-54.7c7.8,5.2,17.2,8.2,27.3,8.2S269.5,97,277.4,91.8z"/>
	<path fill="#808080" d="M234.7,97.6l-34.6-44.2C201.5,74.2,215.6,91.5,234.7,97.6z"/>
	<path fill="#808080" d="M200,50c0,7,1.5,13.8,4.1,19.8L217,12.4C206.6,21.6,200,35,200,50z"/>
	<path fill="#808080" d="M250,0c-3.6,0-7.2,0.4-10.6,1.1l55.3,26.4C286.4,11.2,269.5,0,250,0z"/>
	<circle fill="#808080" cx="250" cy="50" r="6.1"/>
	<circle fill="#808080" cx="273.2" cy="50" r="6.1"/>
	<circle fill="#808080" cx="238.4" cy="29.9" r="6.1"/>
	<circle fill="#808080" cx="238.4" cy="70.1" r="6.1"/>
	<path fill="#808080" d="M250,0c-19.5,0-36.5,11.2-44.7,27.6L259.9,1C256.7,0.3,253.4,0,250,0z"/>
	<rect x="0" y="190" fill="#808080" width="300" height="10"/>
</g>
</svg>
