<?xml version="1.0" encoding="utf-8"?>
<!-- Generator: Adobe Illustrator 25.3.1, SVG Export Plug-In . SVG Version: 6.00 Build 0)  -->
<svg version="1.1" id="segments" xmlns="http://www.w3.org/2000/svg" xmlns:xlink="http://www.w3.org/1999/xlink" x="0px" y="0px"
	 width="300px" height="200px" viewBox="0 0 300 200" enable-background="new 0 0 300 200" xml:space="preserve">
<g id="degree100">
	<path fill="#808080" d="M207.1,24.4l54.4-23c-6.5-1.5-13.3-1.8-20.2-0.6C226.4,3.4,214.3,12.3,207.1,24.4z"/>
	<path fill="#808080" d="M244.8,0.3l49.6,26.6C285,9,265.5-1.9,244.8,0.3z"/>
	<path fill="#808080" d="M286.4,15.8l9.5,53.9c3.8-8.6,5.1-18.4,3.3-28.3S292.9,22.6,286.4,15.8z"/>
	<path fill="#808080" d="M299.5,56.8L262,98.6C282.3,93.6,296.8,76.7,299.5,56.8z"/>
	<path fill="#808080" d="M258.7,99.2c6.9-1.2,13.3-3.9,18.8-7.5L218.7,89C229.6,97.7,243.9,101.8,258.7,99.2z"/>
	<path fill="#808080" d="M200.8,58.7c0.6,3.5,1.6,7,2.9,10.2l16.4-59C205.5,20.9,197.4,39.5,200.8,58.7z"/>
	<circle fill="#808080" cx="250" cy="50" r="6.1"/>
	<circle fill="#808080" cx="246" cy="27.2" r="6.1"/>
	<circle fill="#808080" cx="232.2" cy="64.9" r="6.1"/>
	<circle fill="#808080" cx="271.8" cy="57.9" r="6.1"/>
	<path fill="#808080" d="M200.8,58.7c3.4,19.2,17.4,34,34.9,39.2L200,48.8C199.9,52,200.2,55.3,200.8,58.7z"/>
	<rect y="190" fill="#808080" width="300" height="10"/>
</g>
</svg>
