<?xml version="1.0" encoding="utf-8"?>
<!-- Generator: Adobe Illustrator 25.3.1, SVG Export Plug-In . SVG Version: 6.00 Build 0)  -->
<svg version="1.1" id="segments" xmlns="http://www.w3.org/2000/svg" xmlns:xlink="http://www.w3.org/1999/xlink" x="0px" y="0px"
	 width="300px" height="200px" viewBox="0 0 300 200" enable-background="new 0 0 300 200" xml:space="preserve">
<g id="degree200">
	<path fill="#808080" d="M232.2,96.7l-32.1-49.6c-0.4,6.6,0.5,13.4,2.9,20C208.2,81.3,219.1,91.7,232.2,96.7z"/>
	<path fill="#808080" d="M201.9,63.8l17.6-53.4C203.5,22.6,196.2,43.7,201.9,63.8z"/>
	<path fill="#808080" d="M210,20.1l51.4-18.7c-9.1-2.2-19-1.8-28.5,1.6C223.4,6.5,215.6,12.5,210,20.1z"/>
	<path fill="#808080" d="M248.1,0l47.6,29.7C287.3,10.7,268.1-0.8,248.1,0z"/>
	<path fill="#808080" d="M297,32.9c-2.4-6.6-6.1-12.5-10.6-17.2l7.5,58.4C300.5,61.8,302.1,47,297,32.9z"/>
	<path fill="#808080" d="M267.1,97c3.4-1.2,6.6-2.8,9.6-4.7l-61-5.9C229.1,98.9,248.8,103.7,267.1,97z"/>
	<circle fill="#808080" cx="250" cy="50" r="6.1"/>
	<circle fill="#808080" cx="228.2" cy="57.9" r="6.1"/>
	<circle fill="#808080" cx="267.8" cy="64.9" r="6.1"/>
	<circle fill="#808080" cx="254" cy="27.1" r="6.1"/>
	<path fill="#808080" d="M267.1,97c18.3-6.7,30.5-23,32.6-41.2l-42.2,43.7C260.7,99,263.9,98.1,267.1,97z"/>
	<rect x="0" y="190" fill="#808080" width="300" height="10"/>
</g>
</svg>
