<?xml version="1.0" encoding="utf-8"?>
<!-- Generator: Adobe Illustrator 25.3.1, SVG Export Plug-In . SVG Version: 6.00 Build 0)  -->
<svg version="1.1" id="segments" xmlns="http://www.w3.org/2000/svg" xmlns:xlink="http://www.w3.org/1999/xlink" x="0px" y="0px"
	 width="300px" height="200px" viewBox="0 0 300 200" enable-background="new 0 0 300 200" xml:space="preserve">
<g id="degree020">
	<path fill="#808080" d="M267.8,3.3l32.1,49.6c0.4-6.6-0.5-13.4-2.9-20C291.8,18.7,280.9,8.3,267.8,3.3z"/>
	<path fill="#808080" d="M298.1,36.2l-17.6,53.4C296.5,77.4,303.8,56.3,298.1,36.2z"/>
	<path fill="#808080" d="M290,79.9l-51.4,18.7c9.1,2.2,19,1.8,28.5-1.6C276.6,93.5,284.4,87.5,290,79.9z"/>
	<path fill="#808080" d="M251.9,100l-47.6-29.7C212.7,89.3,231.9,100.8,251.9,100z"/>
	<path fill="#808080" d="M203,67.1c2.4,6.6,6.1,12.5,10.6,17.2L206.1,26C199.5,38.2,197.9,53,203,67.1z"/>
	<path fill="#808080" d="M232.9,3c-3.4,1.2-6.6,2.8-9.6,4.7l61,5.9C270.9,1.1,251.2-3.7,232.9,3z"/>
	<circle fill="#808080" cx="250" cy="50" r="6.1"/>
	<circle fill="#808080" cx="271.8" cy="42.1" r="6.1"/>
	<circle fill="#808080" cx="232.2" cy="35.1" r="6.1"/>
	<circle fill="#808080" cx="246" cy="72.9" r="6.1"/>
	<path fill="#808080" d="M232.9,3c-18.3,6.7-30.5,23-32.6,41.2l42.2-43.7C239.3,1,236.1,1.9,232.9,3z"/>
	<rect x="0" y="190" fill="#808080" width="300" height="10"/>
</g>
</svg>
