<?xml version="1.0" encoding="utf-8"?>
<!-- Generator: Adobe Illustrator 25.3.1, SVG Export Plug-In . SVG Version: 6.00 Build 0)  -->
<svg version="1.1" id="segments" xmlns="http://www.w3.org/2000/svg" xmlns:xlink="http://www.w3.org/1999/xlink" x="0px" y="0px"
	 width="300px" height="200px" viewBox="0 0 300 200" enable-background="new 0 0 300 200" xml:space="preserve">
<g id="degree150">
	<path fill="#808080" d="M202.8,66.4l17.4-56.5c-5.3,4-10,9-13.5,15.1C199.1,38.1,198.2,53.1,202.8,66.4z"/>
	<path fill="#808080" d="M208.5,22l52.2-20.9C241.1-3.2,220.2,4.8,208.5,22z"/>
	<path fill="#808080" d="M247.2,0.1l47.4,27.4C290.4,19,283.7,11.7,275,6.7S256.6-0.5,247.2,0.1z"/>
	<path fill="#808080" d="M287.1,16.4l7.9,55.6C304.1,53.3,300.5,31.3,287.1,16.4z"/>
	<path fill="#808080" d="M293.3,75c3.5-6.1,5.6-12.7,6.3-19.2l-39.9,43.3C273.4,96.3,285.8,88,293.3,75z"/>
	<path fill="#808080" d="M225,93.3c3.1,1.8,6.4,3.3,9.7,4.3L200,47.1C199.1,65.4,208.1,83.6,225,93.3z"/>
	<circle fill="#808080" cx="250" cy="50" r="6.1"/>
	<circle fill="#808080" cx="229.9" cy="38.4" r="6.1"/>
	<circle fill="#808080" cx="250" cy="73.2" r="6.1"/>
	<circle fill="#808080" cx="270.1" cy="38.4" r="6.1"/>
	<path fill="#808080" d="M225,93.3c16.9,9.8,37.2,8.6,52.5-1.6l-60.6-4.3C219.3,89.7,222.1,91.6,225,93.3z"/>
	<rect x="0" y="190" fill="#808080" width="300" height="10"/>
</g>
</svg>
