<?xml version="1.0" encoding="utf-8"?>
<!-- Generator: Adobe Illustrator 25.3.1, SVG Export Plug-In . SVG Version: 6.00 Build 0)  -->
<svg version="1.1" id="segments" xmlns="http://www.w3.org/2000/svg" xmlns:xlink="http://www.w3.org/1999/xlink" x="0px" y="0px"
	 width="300px" height="200px" viewBox="0 0 300 200" enable-background="new 0 0 300 200" xml:space="preserve">
<g id="degree330">
	<path fill="#808080" d="M297.2,33.6l-17.4,56.5c5.3-4,10-9,13.5-15.1C300.9,61.9,301.8,46.9,297.2,33.6z"/>
	<path fill="#808080" d="M291.5,78l-52.2,20.9C258.9,103.2,279.8,95.2,291.5,78z"/>
	<path fill="#808080" d="M252.8,99.9l-47.4-27.4c4.2,8.4,10.8,15.7,19.5,20.8S243.4,100.5,252.8,99.9z"/>
	<path fill="#808080" d="M212.9,83.6L205.1,28C195.9,46.7,199.5,68.7,212.9,83.6z"/>
	<path fill="#808080" d="M206.7,25c-3.5,6.1-5.6,12.7-6.3,19.2l39.9-43.3C226.6,3.7,214.2,12,206.7,25z"/>
	<path fill="#808080" d="M275,6.7c-3.1-1.8-6.4-3.3-9.7-4.3L300,52.9C300.9,34.6,291.9,16.4,275,6.7z"/>
	<circle fill="#808080" cx="250" cy="50" r="6.1"/>
	<circle fill="#808080" cx="270.1" cy="61.6" r="6.1"/>
	<circle fill="#808080" cx="250" cy="26.8" r="6.1"/>
	<circle fill="#808080" cx="229.9" cy="61.6" r="6.1"/>
	<path fill="#808080" d="M275,6.7c-16.9-9.8-37.2-8.6-52.5,1.6l60.6,4.3C280.7,10.3,277.9,8.4,275,6.7z"/>
	<rect x="0" y="190" fill="#808080" width="300" height="10"/>
</g>
</svg>
