<?xml version="1.0" encoding="utf-8"?>
<!-- Generator: Adobe Illustrator 25.3.1, SVG Export Plug-In . SVG Version: 6.00 Build 0)  -->
<svg version="1.1" id="segments" xmlns="http://www.w3.org/2000/svg" xmlns:xlink="http://www.w3.org/1999/xlink" x="0px" y="0px"
	 width="300px" height="200px" viewBox="0 0 300 200" enable-background="new 0 0 300 200" xml:space="preserve">
<g id="degree010">
	<path fill="#808080" d="M275.6,7.1l23,54.4c1.5-6.5,1.8-13.3,0.6-20.2C296.6,26.4,287.7,14.3,275.6,7.1z"/>
	<path fill="#808080" d="M299.7,44.8l-26.6,49.6C291,85,301.9,65.5,299.7,44.8z"/>
	<path fill="#808080" d="M284.2,86.4l-53.9,9.5c8.6,3.8,18.4,5.1,28.3,3.3C268.6,97.5,277.4,92.9,284.2,86.4z"/>
	<path fill="#808080" d="M243.2,99.5L201.4,62C206.4,82.3,223.3,96.8,243.2,99.5z"/>
	<path fill="#808080" d="M200.8,58.7c1.2,6.9,3.9,13.3,7.5,18.8l2.7-58.8C202.3,29.6,198.2,43.9,200.8,58.7z"/>
	<path fill="#808080" d="M241.3,0.8c-3.5,0.6-7,1.6-10.2,2.9l59,16.4C279.1,5.5,260.5-2.6,241.3,0.8z"/>
	<circle fill="#808080" cx="250" cy="50" r="6.1"/>
	<circle fill="#808080" cx="272.8" cy="46" r="6.1"/>
	<circle fill="#808080" cx="235.1" cy="32.2" r="6.1"/>
	<circle fill="#808080" cx="242.1" cy="71.8" r="6.1"/>
	<path fill="#808080" d="M241.3,0.8c-19.2,3.4-34,17.4-39.2,34.9L251.2,0C248-0.1,244.7,0.2,241.3,0.8z"/>
	<rect y="190" fill="#808080" width="300" height="10"/>
</g>
</svg>
