<?xml version="1.0" encoding="utf-8"?>
<!-- Generator: Adobe Illustrator 25.3.1, SVG Export Plug-In . SVG Version: 6.00 Build 0)  -->
<svg version="1.1" id="segments" xmlns="http://www.w3.org/2000/svg" xmlns:xlink="http://www.w3.org/1999/xlink" x="0px" y="0px"
	 width="300px" height="200px" viewBox="0 0 300 200" enable-background="new 0 0 300 200" xml:space="preserve">
<g id="degree070">
	<path fill="#808080" d="M225.7,6.3l58.6,7.3c-4.8-4.5-10.6-8.2-17.2-10.6C252.9-2.1,237.9-0.5,225.7,6.3z"/>
	<path fill="#808080" d="M270.4,4.3L300,52.1C300.8,32,289.4,12.8,270.4,4.3z"/>
	<path fill="#808080" d="M298.7,38.5L279.9,90c7.6-5.6,13.6-13.4,17-22.8S300.8,47.8,298.7,38.5z"/>
	<path fill="#808080" d="M289.5,80.7l-53.4,17.4C256.2,103.9,277.2,96.5,289.5,80.7z"/>
	<path fill="#808080" d="M232.9,97c6.6,2.4,13.5,3.3,20,2.9l-49.5-31.8C208.5,81.1,218.8,91.9,232.9,97z"/>
	<path fill="#808080" d="M203,32.9c-1.2,3.4-2.1,6.9-2.6,10.3l43.7-42.9C226,2.5,209.7,14.6,203,32.9z"/>
	<circle fill="#808080" cx="250" cy="50" r="6.1"/>
	<circle fill="#808080" cx="257.9" cy="28.2" r="6.1"/>
	<circle fill="#808080" cx="227.1" cy="54" r="6.1"/>
	<circle fill="#808080" cx="264.9" cy="67.8" r="6.1"/>
	<path fill="#808080" d="M203,32.9c-6.7,18.3-2,38.1,10.6,51.4l-6.3-60.4C205.6,26.7,204.2,29.7,203,32.9z"/>
	<rect y="190" fill="#808080" width="300" height="10"/>
</g>
</svg>
