<?xml version="1.0" encoding="utf-8"?>
<!-- Generator: Adobe Illustrator 25.3.1, SVG Export Plug-In . SVG Version: 6.00 Build 0)  -->
<svg version="1.1" id="segments" xmlns="http://www.w3.org/2000/svg" xmlns:xlink="http://www.w3.org/1999/xlink" x="0px" y="0px"
	 width="300px" height="200px" viewBox="0 0 300 200" enable-background="new 0 0 300 200" xml:space="preserve">
<g id="degree160">
	<path fill="#808080" d="M206.3,74.3l7.3-58.6c-4.5,4.8-8.2,10.6-10.6,17.2C197.9,47.1,199.5,62.1,206.3,74.3z"/>
	<path fill="#808080" d="M204.3,29.6L252.1,0C232-0.8,212.8,10.6,204.3,29.6z"/>
	<path fill="#808080" d="M238.5,1.3L290,20.1c-5.6-7.6-13.4-13.6-22.8-17C257.6-0.4,247.8-0.8,238.5,1.3z"/>
	<path fill="#808080" d="M280.7,10.5l17.4,53.4C303.9,43.8,296.5,22.8,280.7,10.5z"/>
	<path fill="#808080" d="M297,67.1c2.4-6.6,3.3-13.5,2.9-20l-31.8,49.5C281.1,91.5,291.9,81.2,297,67.1z"/>
	<path fill="#808080" d="M232.9,97c3.4,1.2,6.9,2.1,10.3,2.6l-42.9-43.7C202.5,74,214.6,90.3,232.9,97z"/>
	<circle fill="#808080" cx="250" cy="50" r="6.1"/>
	<circle fill="#808080" cx="228.2" cy="42.1" r="6.1"/>
	<circle fill="#808080" cx="254" cy="72.9" r="6.1"/>
	<circle fill="#808080" cx="267.8" cy="35.1" r="6.1"/>
	<path fill="#808080" d="M232.9,97c18.3,6.7,38.1,2,51.4-10.6l-60.4,6.3C226.7,94.4,229.7,95.8,232.9,97z"/>
	<rect y="190" fill="#808080" width="300" height="10"/>
</g>
</svg>
