<?xml version="1.0" encoding="utf-8"?>
<!-- Generator: Adobe Illustrator 25.3.1, SVG Export Plug-In . SVG Version: 6.00 Build 0)  -->
<svg version="1.1" id="segments" xmlns="http://www.w3.org/2000/svg" xmlns:xlink="http://www.w3.org/1999/xlink" x="0px" y="0px"
	 width="300px" height="200px" viewBox="0 0 300 200" enable-background="new 0 0 300 200" xml:space="preserve">
<g id="degree260">
	<path fill="#808080" d="M281.5,88.8l-59,3c5.6,3.6,11.9,6.3,18.8,7.5C256.2,101.9,270.6,97.6,281.5,88.8z"/>
	<path fill="#808080" d="M237.9,98.5l-37.5-41.9C203.1,76.6,217.7,93.4,237.9,98.5z"/>
	<path fill="#808080" d="M204.1,69.7l9.5-53.9c-6.5,6.8-11.1,15.5-12.8,25.5S200.3,61,204.1,69.7z"/>
	<path fill="#808080" d="M205.8,26.7l49.5-26.4C234.6-2,215.1,8.9,205.8,26.7z"/>
	<path fill="#808080" d="M258.7,0.8c-6.9-1.2-13.9-0.9-20.2,0.6L292.8,24C285.5,12.2,273.5,3.4,258.7,0.8z"/>
	<path fill="#808080" d="M299.2,58.7c0.6-3.5,0.9-7.2,0.8-10.6l-35.6,49.9C281.9,92.6,295.9,77.9,299.2,58.7z"/>
	<circle fill="#808080" cx="250" cy="50" r="6.1"/>
	<circle fill="#808080" cx="246" cy="72.8" r="6.1"/>
	<circle fill="#808080" cx="271.8" cy="42.1" r="6.1"/>
	<circle fill="#808080" cx="232.2" cy="35.1" r="6.1"/>
	<path fill="#808080" d="M299.2,58.7c3.4-19.2-4.7-37.9-19.4-48.8l16.7,58.4C297.8,65.2,298.6,62,299.2,58.7z"/>
	<rect x="0" y="190" fill="#808080" width="300" height="10"/>
</g>
</svg>
