<?xml version="1.0" encoding="utf-8"?>
<!-- Generator: Adobe Illustrator 25.3.1, SVG Export Plug-In . SVG Version: 6.00 Build 0)  -->
<svg version="1.1" id="segments" xmlns="http://www.w3.org/2000/svg" xmlns:xlink="http://www.w3.org/1999/xlink" x="0px" y="0px"
	 width="300px" height="200px" viewBox="0 0 300 200" enable-background="new 0 0 300 200" xml:space="preserve">
<g id="degree080">
	<path fill="#808080" d="M218.4,11.2l59-3c-5.6-3.6-11.9-6.3-18.8-7.5C243.8-1.9,229.3,2.4,218.4,11.2z"/>
	<path fill="#808080" d="M262.1,1.5l37.5,41.9C296.9,23.4,282.3,6.6,262.1,1.5z"/>
	<path fill="#808080" d="M295.9,30.3l-9.5,53.9c6.5-6.8,11.1-15.5,12.8-25.5S299.7,39,295.9,30.3z"/>
	<path fill="#808080" d="M294.2,73.3l-49.5,26.4C265.4,102,284.9,91.1,294.2,73.3z"/>
	<path fill="#808080" d="M241.3,99.2c6.9,1.2,13.9,0.9,20.2-0.6L207.2,76C214.5,87.8,226.5,96.6,241.3,99.2z"/>
	<path fill="#808080" d="M200.8,41.3c-0.6,3.5-0.9,7.2-0.8,10.6l35.6-49.9C218.1,7.4,204.1,22.1,200.8,41.3z"/>
	<circle fill="#808080" cx="250" cy="50" r="6.1"/>
	<circle fill="#808080" cx="254" cy="27.2" r="6.1"/>
	<circle fill="#808080" cx="228.2" cy="57.9" r="6.1"/>
	<circle fill="#808080" cx="267.8" cy="64.9" r="6.1"/>
	<path fill="#808080" d="M200.8,41.3c-3.4,19.2,4.7,37.9,19.4,48.8l-16.7-58.4C202.2,34.8,201.3,38,200.8,41.3z"/>
	<rect x="0" y="190" fill="#808080" width="300" height="10"/>
</g>
</svg>
