<?xml version="1.0" encoding="utf-8"?>
<!-- Generator: Adobe Illustrator 25.3.1, SVG Export Plug-In . SVG Version: 6.00 Build 0)  -->
<svg version="1.1" id="segments" xmlns="http://www.w3.org/2000/svg" xmlns:xlink="http://www.w3.org/1999/xlink" x="0px" y="0px"
	 width="300px" height="200px" viewBox="0 0 300 200" enable-background="new 0 0 300 200" xml:space="preserve">
<g id="degree190">
	<path fill="#808080" d="M224.4,92.9l-23-54.4c-1.5,6.5-1.8,13.3-0.6,20.2C203.4,73.6,212.3,85.7,224.4,92.9z"/>
	<path fill="#808080" d="M200.3,55.2l26.6-49.6C209,15,198.1,34.5,200.3,55.2z"/>
	<path fill="#808080" d="M215.8,13.6l53.9-9.5C261,0.3,251.3-1,241.3,0.8C231.4,2.5,222.6,7.1,215.8,13.6z"/>
	<path fill="#808080" d="M256.8,0.5L298.6,38C293.6,17.7,276.7,3.2,256.8,0.5z"/>
	<path fill="#808080" d="M299.2,41.3c-1.2-6.9-3.9-13.3-7.5-18.8L289,81.3C297.7,70.4,301.8,56.1,299.2,41.3z"/>
	<path fill="#808080" d="M258.7,99.2c3.5-0.6,7-1.6,10.2-2.9l-59-16.4C220.9,94.5,239.5,102.6,258.7,99.2z"/>
	<circle fill="#808080" cx="250" cy="50" r="6.1"/>
	<circle fill="#808080" cx="227.2" cy="54" r="6.1"/>
	<circle fill="#808080" cx="264.9" cy="67.8" r="6.1"/>
	<circle fill="#808080" cx="257.9" cy="28.2" r="6.1"/>
	<path fill="#808080" d="M258.7,99.2c19.2-3.4,34-17.4,39.2-34.9L248.8,100C252,100.1,255.3,99.8,258.7,99.2z"/>
	<rect y="190" fill="#808080" width="300" height="10"/>
</g>
</svg>
