<?xml version="1.0" encoding="utf-8"?>
<!-- Generator: Adobe Illustrator 25.3.1, SVG Export Plug-In . SVG Version: 6.00 Build 0)  -->
<svg version="1.1" id="segments" xmlns="http://www.w3.org/2000/svg" xmlns:xlink="http://www.w3.org/1999/xlink" x="0px" y="0px"
	 width="300px" height="200px" viewBox="0 0 300 200" enable-background="new 0 0 300 200" xml:space="preserve">
<g id="degree250">
	<path fill="#808080" d="M274.3,93.7l-58.6-7.3c4.8,4.5,10.6,8.2,17.2,10.6C247.1,102.1,262.1,100.5,274.3,93.7z"/>
	<path fill="#808080" d="M229.6,95.7L200,47.9C199.2,68,210.6,87.2,229.6,95.7z"/>
	<path fill="#808080" d="M201.3,61.5L220.1,10c-7.6,5.6-13.6,13.4-17,22.8S199.2,52.2,201.3,61.5z"/>
	<path fill="#808080" d="M210.5,19.3l53.4-17.4C243.8-3.9,222.8,3.5,210.5,19.3z"/>
	<path fill="#808080" d="M267.1,3c-6.6-2.4-13.5-3.3-20-2.9l49.5,31.8C291.5,18.9,281.2,8.1,267.1,3z"/>
	<path fill="#808080" d="M297,67.1c1.2-3.4,2.1-6.9,2.6-10.3l-43.7,42.9C274,97.5,290.3,85.4,297,67.1z"/>
	<circle fill="#808080" cx="250" cy="50" r="6.1"/>
	<circle fill="#808080" cx="242.1" cy="71.8" r="6.1"/>
	<circle fill="#808080" cx="272.9" cy="46" r="6.1"/>
	<circle fill="#808080" cx="235.1" cy="32.2" r="6.1"/>
	<path fill="#808080" d="M297,67.1c6.7-18.3,2-38.1-10.6-51.4l6.3,60.4C294.4,73.3,295.8,70.3,297,67.1z"/>
	<rect y="190" fill="#808080" width="300" height="10"/>
</g>
</svg>
