<svg version="1.1" id="Layer_1" xmlns="http://www.w3.org/2000/svg" xmlns:xlink="http://www.w3.org/1999/xlink" x="0px" y="0px"
	 width="500px" height="500px" viewBox="0 0 500 500" enable-background="new 0 0 500 500" xml:space="preserve">
    <symbol  id="bluePlasma" viewBox="-2.4475 -2.4475 4.895 4.895">
        <path fill="#1C334D" d="M-1.2236,2.1193C-0.0531,2.795,1.4435,2.394,2.1193,1.2236S2.394-1.4435,1.2236-2.1193
            S-1.4435-2.394-2.1193-1.2236S-2.394,1.4435-1.2236,2.1193z"/>
    </symbol>
    <symbol  id="circularGuide" viewBox="-30.2569 -30.2788 60.5137 60.5137">
        <path fill="none" stroke="#000000" stroke-width="0.25" stroke-miterlimit="10" d="M30.1319-0.022
            c0-16.6414-13.4905-30.1319-30.1319-30.1319S-30.1319-16.6633-30.1319-0.022S-16.6414,30.1099,0,30.1099
            S30.1319,16.6194,30.1319-0.022z"/>
    </symbol>
    <symbol  id="greenPlasma" viewBox="-2.4475 -2.4475 4.895 4.895">
        <path fill="#334D1C" d="M-1.2236-2.1193C-2.394-1.4435-2.795,0.0531-2.1193,1.2236S0.0531,2.795,1.2236,2.1193
            S2.795-0.0531,2.1193-1.2236S-0.0531-2.795-1.2236-2.1193z"/>
    </symbol>
    <symbol  id="plasmaCasing" viewBox="-10.1267 -10.1267 20.2533 20.2533">
        <path fill="none" stroke="#000000" stroke-width="0.25" stroke-miterlimit="10" d="M-5-8.6603
            C-9.7829-5.8988-11.4217,0.2171-8.6603,5S0.2171,11.4217,5,8.6603S11.4217-0.2171,8.6603-5S-0.2171-11.4217-5-8.6603z M0,9.4793
            l-7.4112-3.5691l-1.8304-8.0196l5.1287-6.4312h8.2259l5.1287,6.4312L7.4112,5.9103L0,9.4793z"/>
    </symbol>
    <symbol  id="plasmaConduit" viewBox="-10.1267 -10.1267 20.2533 20.2533">
        <g transform="rotate(10 0 0)">"
            <use xlink:href="#plasmaCasing"  width="20.2533" height="20.2533" x="-10.1267" y="-10.1267" overflow="visible"/>
            
            <use xlink:href="#redPlasma"  width="4.8942" height="4.8942" x="-2.4471" y="-2.4471" transform="matrix(1 0 0 1 0 5.1114)" overflow="visible"/>
        
            <use xlink:href="#bluePlasma"  width="4.895" height="4.895" x="-2.4475" y="-2.4475" transform="matrix(1 0 0 1 -4.4266 -2.5557)" overflow="visible"/>
        
            <use xlink:href="#greenPlasma"  width="4.895" height="4.895" x="-2.4475" y="-2.4475" transform="matrix(1 0 0 1 4.4266 -2.5557)" overflow="visible"/>
        </g>
    </symbol>
    <symbol  id="redPlasma" viewBox="-2.4471 -2.4471 4.8942 4.8942">
        <path fill="#4D1C1C" d="M2.4471,0c0-1.3515-1.0956-2.4471-2.4471-2.4471S-2.4471-1.3515-2.4471,0S-1.3515,2.4471,0,2.4471
            S2.4471,1.3515,2.4471,0z"/>
    </symbol>
    <g id="outer" transform="rotate(40 250 250)">
        <use xlink:href="#circularGuide"  width="60.5137" height="60.5137" x="-30.2569" y="-30.2788" transform="matrix(8.0429 0 0 -8.0429 250 250)" overflow="visible"/>
    
        <use xlink:href="#plasmaConduit"  width="20.2533" height="20.2533" x="-10.1267" y="-10.1267" transform="matrix(9.9858 0 0 -9.9858 250 376.2762)" overflow="visible"/>
    </g>
</svg>