<svg id="wendAnim" xmlns="http://www.w3.org/2000/svg" version="1.1" xmlns:xlink="http://www.w3.org/1999/xlink"
    preserveAspectRatio="none" x="0px" y="0px" width="1000px" height="1000px" viewBox="0 0 1000 1000">
    <defs>
        <g id="outerCircle">
            <g id="CIRC02_0_Layer0_0_FILL">
                <path fill="#7F7F7F" stroke="none" d="
    M 74.4 -74.4
    Q 43.6 -105.2 0 -105.2 -43.6 -105.2 -74.4 -74.4 -105.2 -43.6 -105.2 0 -105.2 43.6 -74.4 74.4 -43.6 105.2 0 105.2 43.6 105.2 74.4 74.4 105.2 43.6 105.2 0 105.2 -43.6 74.4 -74.4
    M 86.4 24.25
    Q 86.35 24.4 86.3 24.55
    L 40.2 82.2
    Q 37.95 83.35 35.7 84.4
    L -40.5 84.4
    Q -41.4 84 -42.25 83.6
    L -89.6 24.4 -71.6 -51.6 -1.6 -85.6 70.4 -51.6 86.4 24.25 Z" />

                <path fill="#000000" stroke="none" d="
    M -13.6 0.4
    Q -13.6 14.4 -1.6 14.4 10.4 14.4 10.4 0.4 10.4 -11.6 -1.6 -11.6 -13.6 -11.6 -13.6 0.4 Z" />

                <path fill="#0000FF" stroke="none" d="
    M -23.6 30.4
    Q -35.6 30.4 -35.6 42.4 -35.6 54.4 -23.6 54.4 -11.6 54.4 -11.6 42.4 -11.6 30.4 -23.6 30.4 Z" />

                <path fill="#FF0000" stroke="none" d="
    M -35.6 -39.6
    Q -35.6 -27.6 -23.6 -27.6 -11.6 -27.6 -11.6 -39.6 -11.6 -51.6 -23.6 -51.6 -35.6 -51.6 -35.6 -39.6 Z" />

                <path fill="#00FF00" stroke="none" d="
    M 46.4 14.4
    Q 58.4 14.4 58.4 0.4 58.4 -11.6 46.4 -11.6 32.4 -11.6 32.4 0.4 32.4 14.4 46.4 14.4 Z" />
                
                <animateTransform attributeName="transform" type="rotate" begin="0s" dur="10s" values="
                0 0 0;
                360 0 0" repeatCount="indefinite" />
            </g>

            <path id="circlesForSvgAnim_0_Layer0_0_1_STROKES" stroke="#000000" stroke-width="0.1" stroke-linejoin="round"
                stroke-linecap="round" fill="none"
                d="
    M 392.95 0
    Q 392.95 162.75 277.85 277.85 162.75 392.95 0 392.95 -162.75 392.95 -277.85 277.85 -392.95 162.75 -392.95 0 -392.95 -162.75 -277.85 -277.85 -162.75 -392.95 0 -392.95 162.75 -392.95 277.85 -277.85 392.95 -162.75 392.95 0 Z" />
                
        </g>
    </defs>

    <g 
    transform="matrix( 0.6181488037109375, 0, 0, 0.6181488037109375, 250,250)">
        <g transform="matrix( 1, 0, 0, 1, 0,265.95) ">
            <g transform="matrix( 0.950775146484375, 0, 0, 0.950775146484375, -4.15,-4.15) ">
                <use xlink:href="#CIRC02_0_Layer0_0_FILL" />
            </g>
                
            <animateTransform attributeName="transform" type="rotate" begin="0s" dur="70s" values="
            0 50 50;
            360 50 50" repeatCount="indefinite" />
        </g>
    </g>
</svg>